<?xml version="1.0" encoding="utf-8"?>
<!-- Generator: Adobe Illustrator 24.0.3, SVG Export Plug-In . SVG Version: 6.00 Build 0)  -->
<svg version="1.1" id="Layer_1" xmlns:serif="http://www.serif.com/"
	 xmlns="http://www.w3.org/2000/svg" xmlns:xlink="http://www.w3.org/1999/xlink" x="0px" y="0px" viewBox="0 0 612 612"
	 style="enable-background:new 0 0 612 612;" xml:space="preserve">
<style type="text/css">
	.st0{fill:#FFFFFF;}
</style>
<path class="st0" d="M562,0H50C22.4,0,0,22.4,0,50v512c0,27.6,22.4,50,50,50h276.9V375.3h-79.5v-92.6h79.5v-68
	c0-79,48.3-122.1,118.7-122.1c23.8-0.1,47.6,1.1,71.3,3.7v82.4h-48.8c-38.2,0-45.6,18.3-45.6,45v59.1h91.7l-12,92.6h-79.8V612H562
	c27.6,0,50-22.4,50-50V50C612,22.4,589.6,0,562,0z"/>
</svg>
